<svg xmlns="http://www.w3.org/2000/svg" class="el-tooltip" style="margin: auto;" color-interpolation-filters="sRGB" viewBox="0 0 340 250" preserveAspectRatio="xMidYMid meet" width="100%" height="100%" data-v-1e121de1="" xmlns:xlink="http://www.w3.org/1999/xlink" version="1.0"> <rect class="watermarklayer" fill="" fill-opacity="1" x="0" y="0" width="100%" height="100%" data-v-1e121de1=""/> <g class="icon-text-wrapper icon-svg-group iconsvg" fill="#ffffff" transform="translate(53.3676 95)" data-v-1e121de1=""><g class="iconsvg-imagesvg font-path" transform="translate(0)"><rect class="image-rect" fill="#ffffff" fill-opacity="0" stroke-width="2" x="0" y="0" width="60" height="60"/> <svg class="image-svg-svg initial" viewBox="0 0 60 60" x="0" y="0" width="60" height="60" filtersec="colorsf8033046559"><g mask="url(&quot;#b8428e9a-1069-4c18-81c1-2fb4547946b6&quot;)"><svg filter="url(#colors2561790283)" style="shape-rendering:geometricPrecision;text-rendering:geometricPrecision;image-rendering:optimizeQuality;" clip-rule="evenodd" fill-rule="evenodd" viewBox="0 0 249 249" x="0" y="0" width="60" height="60" version="1.1" xmlns:xml="http://www.w3.org/XML/1998/namespace" xml:space="preserve"><defs/><g><path class="fil0" d="M 125 0 c 68 0 124 56 124 125 c 0 68 -56 124 -124 124 c -69 0 -125 -56 -125 -124 c 0 -69 56 -125 125 -125 Z"/></g></svg><g fill="#ffffff" transform="translate(22.15 9.625)"><g transform="translate(0)"><g><path transform="translate(-1.8 38.5)" d="M 8.75 -30.9 L 8.75 -30.9 L 8.75 -25.7 L 16.15 -25.7 L 16.15 -23.7 L 8.75 -23.7 L 8.75 2.25 L 6.6 2.25 L 6.6 -23.7 L 1.8 -23.7 L 1.8 -25.7 L 6.6 -25.7 L 6.6 -31.1 Q 6.6 -34.6 8.58 -36.55 Q 10.55 -38.5 14 -38.5 L 14 -38.5 Q 16.3 -38.5 17.5 -37.8 L 17.5 -37.8 L 17.5 -35.95 Q 16 -36.55 14.1 -36.55 L 14.1 -36.55 Q 8.75 -36.55 8.75 -30.9 Z"/></g></g></g></g><mask id="b8428e9a-1069-4c18-81c1-2fb4547946b6"><g><svg clip-rule="evenodd" fill="#ffffff" fill-rule="evenodd" stroke="#ffffff" viewBox="0 0 249 249" x="0" y="0" width="60" height="60" version="1.1" xmlns:xml="http://www.w3.org/XML/1998/namespace" xml:space="preserve"><defs/><g><path class="fil0" d="M 125 0 c 68 0 124 56 124 125 c 0 68 -56 124 -124 124 c -69 0 -125 -56 -125 -124 c 0 -69 56 -125 125 -125 Z"/></g></svg><g fill="#000000" transform="translate(22.15 9.625)"><g transform="translate(0)"><g><path transform="translate(-1.8 38.5)" d="M 8.75 -30.9 L 8.75 -30.9 L 8.75 -25.7 L 16.15 -25.7 L 16.15 -23.7 L 8.75 -23.7 L 8.75 2.25 L 6.6 2.25 L 6.6 -23.7 L 1.8 -23.7 L 1.8 -25.7 L 6.6 -25.7 L 6.6 -31.1 Q 6.6 -34.6 8.58 -36.55 Q 10.55 -38.5 14 -38.5 L 14 -38.5 Q 16.3 -38.5 17.5 -37.8 L 17.5 -37.8 L 17.5 -35.95 Q 16 -36.55 14.1 -36.55 L 14.1 -36.55 Q 8.75 -36.55 8.75 -30.9 Z"/></g></g></g></g></mask></svg> <defs><filter id="colors2561790283"><feColorMatrix class="icon-fecolormatrix" type="matrix" values="0 0 0 0 0.996094 0 0 0 0 0.996094 0 0 0 0 0.996094 0 0 0 1 0"/></filter> <filter id="colorsf8033046559"><feColorMatrix class="icon-fecolormatrix" type="matrix" values="0 0 0 0 0.996094 0 0 0 0 0.996094 0 0 0 0 0.996094 0 0 0 1 0"/></filter> <filter id="colorsb7266708864"><feColorMatrix class="icon-fecolormatrix" type="matrix" values="0 0 0 0 0 0 0 0 0 0 0 0 0 0 0 0 0 0 1 0"/></filter></defs></g> <g transform="translate(67 15.735)"><g class="tp-name iconsvg-namesvg" fill-rule=""><g><path transform="translate(-1.24517 26.6328)" d="M 6.05 -21.38 L 6.05 -21.38 L 6.05 -17.78 L 11.17 -17.78 L 11.17 -16.39 L 6.05 -16.39 L 6.05 1.56 L 4.57 1.56 L 4.57 -16.39 L 1.25 -16.39 L 1.25 -17.78 L 4.57 -17.78 L 4.57 -21.51 Q 4.57 -23.93 5.93 -25.28 Q 7.3 -26.63 9.68 -26.63 L 9.68 -26.63 Q 11.28 -26.63 12.11 -26.15 L 12.11 -26.15 L 12.11 -24.87 Q 11.07 -25.28 9.75 -25.28 L 9.75 -25.28 Q 6.05 -25.28 6.05 -21.38 Z M 30.09 -13.14 L 30.09 -3.08 Q 30.09 -0.17 30.2 1.56 L 30.2 1.56 L 28.92 1.56 Q 28.78 0.35 28.71 -3.04 L 28.71 -3.04 Q 27.84 -0.69 26.15 0.61 Q 24.45 1.9 22.1 1.9 L 22.1 1.9 Q 19.82 1.9 18.07 0.64 Q 16.33 -0.62 15.36 -2.89 Q 14.39 -5.15 14.39 -8.09 L 14.39 -8.09 Q 14.39 -11.03 15.36 -13.32 Q 16.33 -15.6 18.07 -16.86 Q 19.82 -18.12 22.1 -18.12 L 22.1 -18.12 Q 24.45 -18.12 26.15 -16.81 Q 27.84 -15.5 28.71 -13.18 L 28.71 -13.18 Q 28.78 -16.57 28.92 -17.78 L 28.92 -17.78 L 30.2 -17.78 Q 30.09 -16.08 30.09 -13.14 L 30.09 -13.14 Z M 28.67 -8.09 L 28.67 -8.09 Q 28.67 -10.65 27.86 -12.62 Q 27.05 -14.6 25.6 -15.67 Q 24.14 -16.74 22.27 -16.74 L 22.27 -16.74 Q 20.41 -16.74 18.97 -15.65 Q 17.54 -14.56 16.72 -12.61 Q 15.91 -10.65 15.91 -8.09 L 15.91 -8.09 Q 15.91 -5.57 16.72 -3.61 Q 17.54 -1.66 18.99 -0.57 Q 20.44 0.52 22.27 0.52 L 22.27 0.52 Q 24.14 0.52 25.6 -0.57 Q 27.05 -1.66 27.86 -3.61 Q 28.67 -5.57 28.67 -8.09 Z M 50.15 -11.41 L 50.15 -11.41 L 50.15 1.56 L 48.73 1.56 L 48.73 -11.21 Q 48.73 -14.04 47.45 -15.39 Q 46.17 -16.74 43.48 -16.74 L 43.48 -16.74 Q 41.54 -16.74 40.02 -15.77 Q 38.5 -14.8 37.65 -13.04 Q 36.8 -11.28 36.8 -9.03 L 36.8 -9.03 L 36.8 1.56 L 35.31 1.56 L 35.31 -13.14 Q 35.31 -16.08 35.21 -17.78 L 35.21 -17.78 L 36.46 -17.78 Q 36.59 -16.64 36.66 -13.42 L 36.66 -13.42 Q 37.63 -15.74 39.41 -16.93 Q 41.19 -18.12 43.75 -18.12 L 43.75 -18.12 Q 46.8 -18.12 48.48 -16.36 Q 50.15 -14.6 50.15 -11.41 Z M 69.25 1.56 L 67.41 1.56 L 61.53 -7.13 L 55.58 1.56 L 53.89 1.56 L 60.81 -8.23 L 54.06 -17.78 L 55.89 -17.78 L 61.64 -9.41 L 67.41 -17.78 L 69.04 -17.78 L 62.36 -8.23 L 69.25 1.56 Z M 74.16 -24.45 L 74.16 -24.45 Q 74.81 -24.45 75.16 -24.09 Q 75.51 -23.73 75.51 -23.1 L 75.51 -23.1 Q 75.51 -22.45 75.16 -22.1 Q 74.81 -21.76 74.16 -21.76 L 74.16 -21.76 Q 73.53 -21.76 73.17 -22.12 Q 72.81 -22.48 72.81 -23.1 L 72.81 -23.1 Q 72.81 -23.73 73.19 -24.09 Q 73.57 -24.45 74.16 -24.45 Z M 73.4 -17.78 L 74.92 -17.78 L 74.92 1.56 L 73.4 1.56 L 73.4 -17.78 Z M 95.36 -13.14 L 95.36 -3.08 Q 95.36 -0.17 95.46 1.56 L 95.46 1.56 L 94.18 1.56 Q 94.04 0.35 93.98 -3.04 L 93.98 -3.04 Q 93.11 -0.69 91.42 0.61 Q 89.72 1.9 87.37 1.9 L 87.37 1.9 Q 85.09 1.9 83.34 0.64 Q 81.59 -0.62 80.62 -2.89 Q 79.66 -5.15 79.66 -8.09 L 79.66 -8.09 Q 79.66 -11.03 80.62 -13.32 Q 81.59 -15.6 83.34 -16.86 Q 85.09 -18.12 87.37 -18.12 L 87.37 -18.12 Q 89.72 -18.12 91.42 -16.81 Q 93.11 -15.5 93.98 -13.18 L 93.98 -13.18 Q 94.04 -16.57 94.18 -17.78 L 94.18 -17.78 L 95.46 -17.78 Q 95.36 -16.08 95.36 -13.14 L 95.36 -13.14 Z M 93.94 -8.09 L 93.94 -8.09 Q 93.94 -10.65 93.13 -12.62 Q 92.32 -14.6 90.86 -15.67 Q 89.41 -16.74 87.54 -16.74 L 87.54 -16.74 Q 85.67 -16.74 84.24 -15.65 Q 82.8 -14.56 81.99 -12.61 Q 81.18 -10.65 81.18 -8.09 L 81.18 -8.09 Q 81.18 -5.57 81.99 -3.61 Q 82.8 -1.66 84.26 -0.57 Q 85.71 0.52 87.54 0.52 L 87.54 0.52 Q 89.41 0.52 90.86 -0.57 Q 92.32 -1.66 93.13 -3.61 Q 93.94 -5.57 93.94 -8.09 Z M 107.67 -18.12 L 107.67 -18.12 Q 109.99 -18.12 111.77 -16.84 Q 113.55 -15.56 114.54 -13.28 Q 115.52 -11 115.52 -8.09 L 115.52 -8.09 Q 115.52 -5.19 114.54 -2.92 Q 113.55 -0.66 111.77 0.62 Q 109.99 1.9 107.67 1.9 L 107.67 1.9 Q 105.36 1.9 103.57 0.62 Q 101.79 -0.66 100.81 -2.94 Q 99.82 -5.22 99.82 -8.09 L 99.82 -8.09 Q 99.82 -11 100.81 -13.28 Q 101.79 -15.56 103.57 -16.84 Q 105.36 -18.12 107.67 -18.12 Z M 107.67 -16.74 L 107.67 -16.74 Q 105.8 -16.74 104.37 -15.67 Q 102.93 -14.6 102.14 -12.62 Q 101.34 -10.65 101.34 -8.09 L 101.34 -8.09 Q 101.34 -5.53 102.14 -3.58 Q 102.93 -1.63 104.37 -0.55 Q 105.8 0.52 107.67 0.52 L 107.67 0.52 Q 109.54 0.52 110.99 -0.55 Q 112.45 -1.63 113.26 -3.58 Q 114.07 -5.53 114.07 -8.09 L 114.07 -8.09 Q 114.07 -10.65 113.26 -12.62 Q 112.45 -14.6 110.99 -15.67 Q 109.54 -16.74 107.67 -16.74 Z M 123.41 -21.38 L 123.41 -21.38 L 123.41 -17.78 L 128.53 -17.78 L 128.53 -16.39 L 123.41 -16.39 L 123.41 1.56 L 121.92 1.56 L 121.92 -16.39 L 118.6 -16.39 L 118.6 -17.78 L 121.92 -17.78 L 121.92 -21.51 Q 121.92 -23.93 123.29 -25.28 Q 124.66 -26.63 127.04 -26.63 L 127.04 -26.63 Q 128.63 -26.63 129.46 -26.15 L 129.46 -26.15 L 129.46 -24.87 Q 128.43 -25.28 127.11 -25.28 L 127.11 -25.28 Q 123.41 -25.28 123.41 -21.38 Z M 147.45 -13.14 L 147.45 -3.08 Q 147.45 -0.17 147.55 1.56 L 147.55 1.56 L 146.27 1.56 Q 146.13 0.35 146.07 -3.04 L 146.07 -3.04 Q 145.2 -0.69 143.51 0.61 Q 141.81 1.9 139.46 1.9 L 139.46 1.9 Q 137.18 1.9 135.43 0.64 Q 133.68 -0.62 132.71 -2.89 Q 131.75 -5.15 131.75 -8.09 L 131.75 -8.09 Q 131.75 -11.03 132.71 -13.32 Q 133.68 -15.6 135.43 -16.86 Q 137.18 -18.12 139.46 -18.12 L 139.46 -18.12 Q 141.81 -18.12 143.51 -16.81 Q 145.2 -15.5 146.07 -13.18 L 146.07 -13.18 Q 146.13 -16.57 146.27 -17.78 L 146.27 -17.78 L 147.55 -17.78 Q 147.45 -16.08 147.45 -13.14 L 147.45 -13.14 Z M 146.03 -8.09 L 146.03 -8.09 Q 146.03 -10.65 145.22 -12.62 Q 144.4 -14.6 142.95 -15.67 Q 141.5 -16.74 139.63 -16.74 L 139.63 -16.74 Q 137.76 -16.74 136.33 -15.65 Q 134.89 -14.56 134.08 -12.61 Q 133.27 -10.65 133.27 -8.09 L 133.27 -8.09 Q 133.27 -5.57 134.08 -3.61 Q 134.89 -1.66 136.35 -0.57 Q 137.8 0.52 139.63 0.52 L 139.63 0.52 Q 141.5 0.52 142.95 -0.57 Q 144.4 -1.66 145.22 -3.61 Q 146.03 -5.57 146.03 -8.09 Z M 167.51 -11.41 L 167.51 -11.41 L 167.51 1.56 L 166.09 1.56 L 166.09 -11.21 Q 166.09 -14.04 164.81 -15.39 Q 163.53 -16.74 160.83 -16.74 L 160.83 -16.74 Q 158.9 -16.74 157.38 -15.77 Q 155.85 -14.8 155.01 -13.04 Q 154.16 -11.28 154.16 -9.03 L 154.16 -9.03 L 154.16 1.56 L 152.67 1.56 L 152.67 -13.14 Q 152.67 -16.08 152.57 -17.78 L 152.57 -17.78 L 153.81 -17.78 Q 153.95 -16.64 154.02 -13.42 L 154.02 -13.42 Q 154.99 -15.74 156.77 -16.93 Q 158.55 -18.12 161.11 -18.12 L 161.11 -18.12 Q 164.15 -18.12 165.83 -16.36 Q 167.51 -14.6 167.51 -11.41 Z"/></g> <!----> <!----> <!----> <!----> <!----> <!----> <!----></g> <!----></g></g></svg>